# xmcd
#
# Track frame offsets: 
#        150
#        4005
#        20645
#        28433
#        48142
#        58185
#        78932
#        96639
#        111556
#        128094
#        145360
#        162073
#        181645
#        194883
#        210202
#        230841
#        249601
#        268725
#        284390
#        292081
#
# Disc length: 4261 seconds
#
# Revision: 0
# Processed by: cddbd v1.5.2PL0 Copyright (c) Steve Scherf et al.
# Submitted via: ExactAudioCopy v0.95a5
#
DISCID=3310a314
DTITLE=Alicia Keys - Keys To The City: The Mixtape Diary Of Alicia Key
DTITLE=s 
DYEAR=2005
DGENRE=R&B
TTITLE0=Lights-Out Krucialkeys Intro
TTITLE1=You Don't Know My Name (Lights-Out Remix featuring DNA)
TTITLE2=Killing Me Softly
TTITLE3=Fallen (Unreleased UK Version)
TTITLE4=I Come Apart (Aunreleased)
TTITLE5=Streets Of New York (featuring Nas and Rakim)
TTITLE6=If I Ain't Got You (Live Version)
TTITLE7=Juciest
TTITLE8=So Simple
TTITLE9=Butterflyz (Unreleased Version)
TTITLE10=Brotha (Remix W/ Angie Stone and Eve)
TTITLE11=Diary (Live Version)
TTITLE12=If I Was Your Woman
TTITLE13=Troubles (Live In The Netherlands)
TTITLE14=Womans Worth
TTITLE15=Wake Up
TTITLE16=Fallen (Flipmode Remix featuring Busta Rhymes and Rampage)
TTITLE17=You Don't Know My Name (Live)
TTITLE18=Harlems Nocturne Outro
TTITLE19=Bonus Single
EXTD=
EXTT0=
EXTT1=
EXTT2=
EXTT3=
EXTT4=
EXTT5=
EXTT6=
EXTT7=
EXTT8=
EXTT9=
EXTT10=
EXTT11=
EXTT12=
EXTT13=
EXTT14=
EXTT15=
EXTT16=
EXTT17=
EXTT18=
EXTT19=
PLAYORDER=
